#N canvas -7 1 1916 976 12;
#X obj 1230 586 noise~;
#X floatatom 1254 560 5 0 0 0 - - -;
#X obj 922 5 *~;
#X obj 911 56 dac~;
#X obj 1230 888 *~;
#X obj 1230 778 *~;
#X floatatom 1235 746 5 0 1 0 - - -;
#X text 34 876 volumen general;
#X floatatom 60 842 5 0 0 0 - - -;
#X obj 61 769 ctlin 10;
#X obj 1249 846 bng 15 250 50 0 empty empty empty 17 7 0 10 -262144
-1 -1;
#X obj 1249 867 tgl 30 0 empty empty empty 17 7 0 10 -262144 -1 -1
1 1;
#X obj 920 624 noise~;
#X floatatom 945 596 5 0 0 0 - - -;
#X obj 923 942 *~;
#X obj 921 815 *~;
#X floatatom 930 783 5 0 1 0 - - -;
#X obj 938 899 bng 15 250 50 0 empty empty empty 17 7 0 10 -262144
-1 -1;
#X obj 938 920 tgl 30 0 empty empty empty 17 7 0 10 -262144 -1 -1 1
1;
#X obj 613 594 noise~;
#X obj 612 891 *~;
#X obj 609 758 *~;
#X floatatom 616 726 5 0 1 0 - - -;
#X obj 630 850 bng 15 250 50 0 empty empty empty 17 7 0 10 -262144
-1 -1;
#X obj 630 871 tgl 30 0 empty empty empty 17 7 0 10 -262144 -1 -1 1
1;
#X obj 331 546 noise~;
#X obj 335 834 *~;
#X obj 334 710 *~;
#X floatatom 334 682 5 0 1 0 - - -;
#X obj 355 785 bng 15 250 50 0 empty empty empty 17 7 0 10 -262144
-1 -1;
#X obj 353 808 tgl 30 0 empty empty empty 17 7 0 10 -262144 -1 -1 1
1;
#X text 322 321 CUERDA 6;
#X text 610 381 CUERDA 8;
#X text 880 413 CUERDA 9;
#X obj 334 624 ctlin 7;
#X obj 616 660 ctlin 6;
#X obj 929 711 ctlin 5;
#X obj 1235 678 ctlin 4;
#X obj 1773 799 tgl 15 0 empty empty empty 17 7 0 10 -262144 -1 -1
0 1;
#X text 1751 744 desactiva el DPS;
#X obj 1491 563 noise~;
#X floatatom 1514 527 5 0 0 0 - - -;
#X obj 1492 820 *~;
#X obj 1491 742 *~;
#X floatatom 1496 713 5 0 1 0 - - -;
#X obj 1523 797 bng 15 250 50 0 empty empty empty 17 7 0 10 -262144
-1 -1;
#X obj 1523 818 tgl 30 0 empty empty empty 17 7 0 10 -262144 -1 -1
1 1;
#X obj 1496 654 ctlin 3;
#X obj 355 757 r C6;
#X obj 631 813 r C8;
#X obj 939 866 r C9;
#X obj 1249 816 r C7;
#X obj 1523 764 r C5;
#X obj 1774 773 r DSP;
#X obj 339 483 scale_abs;
#X floatatom 319 370 5 0 0 0 - - -;
#X obj 398 321 loadbang;
#X obj 398 348 t b b b b;
#X obj 1496 684 scale_vol;
#X obj 60 802 scale_vol;
#X obj 1235 712 scale_vol;
#X obj 929 748 scale_vol;
#X obj 616 693 scale_vol;
#X obj 333 652 scale_vol;
#X msg 1772 828 \; pd dsp 0;
#X msg 1774 874 \; pd dsp 1;
#N canvas 757 0 1064 978 loadSamples 0;
#X obj 27 49 loadbang;
#X obj 62 201 soundfiler;
#X obj 50 266 soundfiler;
#X obj 39 338 soundfiler;
#X msg 81 107 \; pd dsp 1;
#N canvas 0 50 450 300 (subpatch) 0;
#X array lluvia-table 1.43681e+006 float 2;
#X coords 0 1 1.43681e+006 -1 200 140 1;
#X restore 21 490 graph;
#N canvas 0 50 450 300 (subpatch) 0;
#X array fondo-table 978739 float 2;
#X coords 0 1 978739 -1 200 140 1 0 0;
#X restore 237 491 graph;
#X obj 28 416 soundfiler;
#N canvas 0 50 450 300 (subpatch) 0;
#X array ritmo-table 330750 float 2;
#X coords 0 1 330750 -1 200 140 1 0 0;
#X restore 468 486 graph;
#N canvas 0 50 450 300 (subpatch) 0;
#X array vientos-table 274596 float 2;
#X coords 0 1 274596 -1 200 140 1 0 0;
#X restore 705 481 graph;
#X msg 50 239 read -resize fondo.wav fondo-table;
#X msg 37 300 read -resize ritmo.wav ritmo-table;
#X msg 27 374 read -resize vientos.wav vientos-table;
#X msg 64 159 read -resize lluvia.wav lluvia-table;
#X connect 0 0 13 0;
#X connect 0 0 10 0;
#X connect 0 0 11 0;
#X connect 0 0 4 0;
#X connect 0 0 12 0;
#X connect 10 0 2 0;
#X connect 11 0 3 0;
#X connect 12 0 7 0;
#X connect 13 0 1 0;
#X restore 119 928 pd loadSamples;
#X obj 1742 104 route 1 0;
#X obj 1741 41 tgl 30 0 empty empty empty 17 7 0 10 -262144 -1 -1 0
1;
#X obj 1742 136 tabplay~ ritmo-table;
#N canvas 59 167 769 183 botonera 0;
#X obj 37 39 notein;
#X floatatom 89 39 5 0 0 0 - - -;
#X obj 5 125 s C6;
#X obj 41 124 s C8;
#X obj 76 124 s C9;
#X obj 111 124 s C7;
#X obj 147 123 s C5;
#X obj 183 124 s DSP;
#X obj 35 68 sel 62 63 64 65 66 69 68 59 67 61;
#X obj 237 123 s c1;
#X obj 283 125 s c2;
#X obj 332 126 s c3;
#X obj 376 125 s c4;
#X connect 0 0 1 0;
#X connect 0 0 8 0;
#X connect 8 0 2 0;
#X connect 8 1 3 0;
#X connect 8 2 4 0;
#X connect 8 3 5 0;
#X connect 8 4 6 0;
#X connect 8 5 7 0;
#X connect 8 6 9 0;
#X connect 8 7 10 0;
#X connect 8 8 11 0;
#X connect 8 9 12 0;
#X restore 26 927 pd botonera;
#X obj 1743 257 *~;
#X floatatom 1761 221 5 0 1 0 - - -;
#X obj 1761 192 scale_vol;
#X obj 1761 162 ctlin 1;
#X floatatom 1742 75 5 0 0 0 - - -;
#X obj 1742 19 r c1;
#X obj 15 112 route 1 0;
#X obj 13 44 tgl 30 0 empty empty empty 17 7 0 10 -262144 -86853 -1
0 1;
#X obj 16 265 *~;
#X floatatom 34 229 5 0 1 0 - - -;
#X obj 34 200 scale_vol;
#X floatatom 15 83 5 0 0 0 - - -;
#X obj 1702 401 route 1 0;
#X obj 1704 337 tgl 30 0 empty empty empty 17 7 0 10 -262144 -86277
-1 1 1;
#X obj 1703 554 *~;
#X floatatom 1721 518 5 0 1 0 - - -;
#X obj 1721 489 scale_vol;
#X floatatom 1702 372 5 0 0 0 - - -;
#X obj 78 398 route 1 0;
#X obj 77 333 tgl 30 0 empty empty empty 17 7 0 10 -262144 -1 -1 0
1;
#X obj 79 551 *~;
#X floatatom 97 515 5 0 1 0 - - -;
#X obj 97 486 scale_vol;
#X floatatom 78 369 5 0 0 0 - - -;
#X obj 78 310 r c4;
#X obj 1702 312 r c3;
#X obj 15 20 r c2;
#X obj 15 144 tabplay~ lluvia-table;
#X obj 1702 433 tabplay~ fondo-table;
#X obj 78 430 tabplay~ vientos-table;
#X obj 34 170 ctlin 9;
#X obj 1721 459 ctlin 2;
#X obj 97 456 ctlin 8;
#X obj 611 622 bp~ 0 43;
#X obj 921 659 bp~ 0 44;
#X obj 1490 609 bp~ 0 34;
#X obj 320 344 ctlin 20;
#X msg 398 380 125;
#X msg 400 454 161;
#X msg 399 430 100;
#X floatatom 345 514 5 0 0 0 - - -;
#X msg 398 405 40;
#X obj 621 542 scale_abs;
#X floatatom 614 432 5 0 0 0 - - -;
#X obj 683 384 loadbang;
#X obj 683 409 t b b b b;
#X floatatom 639 567 5 0 0 0 - - -;
#X msg 683 459 40;
#X obj 614 408 ctlin 19;
#X msg 683 434 127;
#X msg 686 488 300;
#X msg 688 516 900;
#X obj 907 571 scale_abs;
#X floatatom 882 465 5 0 0 0 - - -;
#X obj 952 416 loadbang;
#X obj 952 443 t b b b b;
#X obj 879 438 ctlin 18;
#X msg 953 474 120;
#X msg 956 545 4000;
#X obj 1229 537 scale_abs;
#X floatatom 1206 429 5 0 0 0 - - -;
#X obj 1280 388 loadbang;
#X obj 1280 413 t b b b b;
#X msg 1280 438 120;
#X text 1211 382 CUERDA 7;
#X obj 1206 405 ctlin 17;
#X msg 1281 513 2300;
#X obj 1493 502 scale_abs;
#X floatatom 1474 401 5 0 0 0 - - -;
#X obj 1550 347 loadbang;
#X obj 1550 372 t b b b b;
#X obj 1473 376 ctlin 16;
#X text 1475 347 CUERDA 5;
#X msg 1550 397 105;
#X msg 1553 473 400;
#X msg 1550 422 30;
#X msg 953 496 30;
#X obj 1229 620 bp~ 0 31;
#X msg 1552 448 200;
#X msg 955 524 2000;
#X obj 319 398 moses 40;
#X floatatom 322 432 5 0 0 0 - - -;
#X obj 616 459 moses 40;
#X floatatom 619 493 5 0 0 0 - - -;
#X floatatom 882 531 5 0 0 0 - - -;
#X obj 865 498 moses 30;
#X floatatom 1222 485 5 0 0 0 - - -;
#X obj 1213 461 moses 40;
#X floatatom 1475 451 5 0 0 0 - - -;
#X msg 1281 488 800;
#X msg 1280 463 20;
#X obj 332 582 bp~ 0 2;
#X text 1452 940 Tawa para khipu electronico 2020 -;
#X text 1570 678 volumen cuerda 5;
#X text 1555 802 activar cuerda 5;
#X obj 1475 426 moses 30;
#X connect 0 0 148 0;
#X connect 1 0 148 1;
#X connect 2 0 3 0;
#X connect 2 0 3 1;
#X connect 4 0 2 0;
#X connect 5 0 4 0;
#X connect 6 0 5 1;
#X connect 8 0 2 1;
#X connect 9 0 59 0;
#X connect 10 0 11 0;
#X connect 11 0 4 1;
#X connect 12 0 105 0;
#X connect 13 0 105 1;
#X connect 14 0 2 0;
#X connect 15 0 14 0;
#X connect 16 0 15 1;
#X connect 17 0 18 0;
#X connect 18 0 14 1;
#X connect 19 0 104 0;
#X connect 20 0 2 0;
#X connect 21 0 20 0;
#X connect 22 0 21 1;
#X connect 23 0 24 0;
#X connect 24 0 20 1;
#X connect 25 0 162 0;
#X connect 26 0 2 0;
#X connect 27 0 26 0;
#X connect 28 0 27 1;
#X connect 29 0 30 0;
#X connect 30 0 26 1;
#X connect 34 0 63 0;
#X connect 35 0 62 0;
#X connect 36 0 61 0;
#X connect 37 0 60 0;
#X connect 38 0 64 0;
#X connect 40 0 106 0;
#X connect 41 0 106 1;
#X connect 42 0 2 0;
#X connect 43 0 42 0;
#X connect 44 0 43 1;
#X connect 45 0 46 0;
#X connect 46 0 42 1;
#X connect 47 0 58 0;
#X connect 48 0 29 0;
#X connect 49 0 23 0;
#X connect 50 0 17 0;
#X connect 51 0 10 0;
#X connect 52 0 45 0;
#X connect 53 0 38 0;
#X connect 54 0 111 0;
#X connect 54 0 162 1;
#X connect 55 0 151 0;
#X connect 56 0 57 0;
#X connect 57 0 108 0;
#X connect 57 1 112 0;
#X connect 57 2 110 0;
#X connect 57 3 109 0;
#X connect 58 0 44 0;
#X connect 59 0 8 0;
#X connect 60 0 6 0;
#X connect 61 0 16 0;
#X connect 62 0 22 0;
#X connect 63 0 28 0;
#X connect 67 0 69 0;
#X connect 68 0 75 0;
#X connect 69 0 71 0;
#X connect 69 1 75 0;
#X connect 71 0 2 0;
#X connect 72 0 71 1;
#X connect 73 0 72 0;
#X connect 74 0 73 0;
#X connect 75 0 67 0;
#X connect 76 0 68 0;
#X connect 77 0 98 0;
#X connect 78 0 82 0;
#X connect 79 0 2 0;
#X connect 80 0 79 1;
#X connect 81 0 80 0;
#X connect 82 0 77 0;
#X connect 83 0 99 0;
#X connect 84 0 88 0;
#X connect 85 0 2 0;
#X connect 86 0 85 1;
#X connect 87 0 86 0;
#X connect 88 0 83 0;
#X connect 89 0 100 0;
#X connect 90 0 94 0;
#X connect 91 0 2 0;
#X connect 92 0 91 1;
#X connect 93 0 92 0;
#X connect 94 0 89 0;
#X connect 95 0 90 0;
#X connect 96 0 84 0;
#X connect 97 0 78 0;
#X connect 98 0 79 0;
#X connect 98 1 82 0;
#X connect 99 0 85 0;
#X connect 99 1 88 0;
#X connect 100 0 91 0;
#X connect 100 1 94 0;
#X connect 101 0 81 0;
#X connect 102 0 87 0;
#X connect 103 0 93 0;
#X connect 104 0 21 0;
#X connect 105 0 15 0;
#X connect 106 0 43 0;
#X connect 107 0 55 0;
#X connect 108 0 54 1;
#X connect 109 0 54 4;
#X connect 110 0 54 3;
#X connect 112 0 54 2;
#X connect 113 0 117 0;
#X connect 114 0 153 0;
#X connect 115 0 116 0;
#X connect 116 0 120 0;
#X connect 116 1 118 0;
#X connect 116 2 121 0;
#X connect 116 3 122 0;
#X connect 117 0 104 1;
#X connect 118 0 113 2;
#X connect 119 0 114 0;
#X connect 120 0 113 1;
#X connect 121 0 113 3;
#X connect 122 0 113 4;
#X connect 123 0 13 0;
#X connect 124 0 156 0;
#X connect 125 0 126 0;
#X connect 126 0 128 0;
#X connect 126 1 147 0;
#X connect 126 2 150 0;
#X connect 126 3 129 0;
#X connect 127 0 124 0;
#X connect 128 0 123 1;
#X connect 129 0 123 4;
#X connect 130 0 1 0;
#X connect 131 0 158 0;
#X connect 132 0 133 0;
#X connect 133 0 134 0;
#X connect 133 1 161 0;
#X connect 133 2 160 0;
#X connect 133 3 137 0;
#X connect 134 0 130 1;
#X connect 136 0 131 0;
#X connect 137 0 130 4;
#X connect 138 0 41 0;
#X connect 139 0 166 0;
#X connect 140 0 141 0;
#X connect 141 0 144 0;
#X connect 141 1 146 0;
#X connect 141 2 149 0;
#X connect 141 3 145 0;
#X connect 142 0 139 0;
#X connect 144 0 138 1;
#X connect 145 0 138 4;
#X connect 146 0 138 2;
#X connect 147 0 123 2;
#X connect 148 0 5 0;
#X connect 149 0 138 3;
#X connect 150 0 123 3;
#X connect 151 1 152 0;
#X connect 152 0 54 0;
#X connect 153 1 154 0;
#X connect 154 0 113 0;
#X connect 155 0 123 0;
#X connect 156 1 155 0;
#X connect 158 0 130 0;
#X connect 158 1 157 0;
#X connect 159 0 138 0;
#X connect 160 0 130 3;
#X connect 161 0 130 2;
#X connect 162 0 27 0;
#X connect 166 1 159 0;
